<svg xmlns="http://www.w3.org/2000/svg" width="382.736" height="90" viewBox="0 0 382.736 90">
    <defs>
        <style>
            .cls-1{fill:#283882}.cls-2{fill:#010101}
        </style>
    </defs>
    <g id="Layer_2" data-name="Layer 2" transform="translate(-.082)">
        <g id="Layer_1" data-name="Layer 1" transform="translate(.082)">
            <path id="Path_12" d="M42.993 3.779a37.633 37.633 0 0 1 21.727 7.378 40.176 40.176 0 0 1 10.4 11.306 43.614 43.614 0 0 1 3.116 39.258 44.723 44.723 0 0 1-3.683 6.958 42.463 42.463 0 0 1-4.872 6 39.2 39.2 0 0 1-5.835 4.948 37.337 37.337 0 0 1-37.053 3.3 39.982 39.982 0 0 1-6.6-3.9 39.606 39.606 0 0 1-5.666-5.158 39.09 39.09 0 0 1-4.7-6.178 42.9 42.9 0 0 1-3.513-7.078 43.567 43.567 0 0 1 .4-32.09 39.7 39.7 0 0 1 3.683-6.988 41.132 41.132 0 0 1 10.68-11.007 39.945 39.945 0 0 1 6.685-3.719 37.458 37.458 0 0 1 15.24-3m0-3.779C19.561-.215.365 19.67.085 44.477S18.548 89.648 41.979 90s42.7-19.454 43.08-44.26a46.438 46.438 0 0 0-12.023-32.119A41.4 41.4 0 0 0 43.05 0z" class="cls-1" data-name="Path 12" transform="translate(-.082)"/>
            <path id="Path_13" d="M38.518 5.175a27.478 27.478 0 0 1 10.538 2.266A27.186 27.186 0 0 1 65.2 32.681a27.28 27.28 0 0 1-8.215 19.093 27.7 27.7 0 0 1-8.7 5.666 26.918 26.918 0 0 1-29.631-6.232 27 27 0 0 1-7.677-19.291 27.478 27.478 0 0 1 2.273-10.539 27.053 27.053 0 0 1 5.949-8.5 27.365 27.365 0 0 1 8.7-5.666A27 27 0 0 1 38.49 5.231m0-3.569a30.707 30.707 0 1 0 21.6 9.3 30.707 30.707 0 0 0-21.6-9.3z" class="cls-1" data-name="Path 13" transform="translate(13.259 3.04)"/>
            <path id="Path_14" d="M32.97 6.346a15.325 15.325 0 0 1 6.062 1.3 15.719 15.719 0 0 1 8.017 20.623 15.976 15.976 0 0 1-3.4 4.929 15.807 15.807 0 0 1-11.1 4.306 15.524 15.524 0 0 1-10.963-4.731 15.184 15.184 0 0 1-3.258-4.986 15.523 15.523 0 0 1 3.569-17.053A15.354 15.354 0 0 1 32.97 6.346m0-3.569a13.544 13.544 0 1 0 .057-.057z" class="cls-1" data-name="Path 14" transform="translate(24.529 4.985)"/>
            <path id="Path_15" d="M61.007 18.872a4.787 4.787 0 0 0-2.068-3.572 7.96 7.96 0 0 0-4.7-1.3 7.762 7.762 0 0 0-4.787 1.331 4.192 4.192 0 0 0-1.731 3.369 3.4 3.4 0 0 0 .906 2.465A5.949 5.949 0 0 0 50.95 22.7a17.194 17.194 0 0 0 2.833.935l3.343.85a22.662 22.662 0 0 1 5.127 1.87 10.85 10.85 0 0 1 3.966 3.343 8.5 8.5 0 0 1 1.615 5.127 9.518 9.518 0 0 1-3.6 7.705 15.382 15.382 0 0 1-10.028 2.833 15.835 15.835 0 0 1-10-2.833 10.255 10.255 0 0 1-3.938-8.243h6.317a5.071 5.071 0 0 0 2.323 4.192 9.093 9.093 0 0 0 5.156 1.388 8.5 8.5 0 0 0 5.269-1.388 4.391 4.391 0 0 0 1.983-3.711 3.456 3.456 0 0 0-1.756-3.144 16.6 16.6 0 0 0-4.76-1.931l-3.966-.963a16.062 16.062 0 0 1-7-3.456 7.96 7.96 0 0 1-2.572-6.174 9.292 9.292 0 0 1 1.728-5.666 11.331 11.331 0 0 1 4.561-3.569 16.685 16.685 0 0 1 6.77-1.331 16.033 16.033 0 0 1 6.714 1.331 10.991 10.991 0 0 1 4.532 3.654 9.546 9.546 0 0 1 1.7 5.382z" class="cls-2" data-name="Path 15" transform="translate(80.808 18.136)"/>
            <path id="Path_16" d="M58.29 44.609V8.69h6.487V23.9h16.657V8.69h6.515v35.919h-6.515V29.4H64.777v15.24z" class="cls-2" data-name="Path 16" transform="translate(117.145 18.431)"/>
            <path id="Path_17" d="M84.045 8.69v35.919H77.53V8.69z" class="cls-2" data-name="Path 17" transform="translate(154.979 18.429)"/>
            <path id="Path_18" d="M88.6 44.629V8.71h13.456a13 13 0 0 1 9.433 3.173 11.331 11.331 0 0 1 3.229 8.328 11.558 11.558 0 0 1-1.643 6.374 9.773 9.773 0 0 1-4.816 3.909l7.79 14.164h-7.28l-7.025-13.144h-6.629v13.143zm6.515-18.555h5.949a7.847 7.847 0 0 0 5.3-1.5 5.666 5.666 0 0 0 1.7-4.362 5.864 5.864 0 0 0-1.7-4.476 7.563 7.563 0 0 0-5.3-1.586h-5.949z" class="cls-2" data-name="Path 18" transform="translate(178.082 18.41)"/>
            <path id="Path_19" d="M112.725 8.69v35.919h-6.515V8.69z" class="cls-2" data-name="Path 19" transform="translate(215.65 18.429)"/>
            <path id="Path_20" d="M146.761 8.69v35.919H141.1l-17-24.447h-.283v24.447H117.3V8.69h5.835l17 24.5h.312V8.69z" class="cls-2" data-name="Path 20" transform="translate(235.975 18.429)"/>
        </g>
    </g>
</svg>
